<?xml version="1.0" standalone="no"?>
<!DOCTYPE svg PUBLIC "-//W3C//DTD SVG 20010904//EN"
 "http://www.w3.org/TR/2001/REC-SVG-20010904/DTD/svg10.dtd">
<svg version="1.0" xmlns="http://www.w3.org/2000/svg"
 width="500.000000pt" height="500.000000pt" viewBox="0 0 500.000000 500.000000"
 preserveAspectRatio="xMidYMid meet">

<g transform="translate(0.000000,500.000000) scale(0.100000,-0.100000)"
fill="#000000" stroke="none">
<path d="M2275 4849 c-107 -11 -374 -75 -500 -119 -49 -18 -109 -38 -133 -46
-55 -17 -215 -95 -273 -133 -24 -15 -78 -49 -119 -74 -167 -103 -400 -322
-544 -512 -219 -288 -343 -565 -411 -915 -72 -373 -71 -543 6 -915 83 -401
294 -812 573 -1115 58 -63 111 -119 118 -125 7 -5 49 -42 93 -81 218 -194 525
-360 835 -453 325 -98 829 -93 1164 10 360 111 650 278 928 535 26 24 89 92
140 151 398 458 598 981 598 1560 0 206 -9 296 -50 483 -66 305 -188 568 -380
823 -170 227 -391 434 -610 574 -265 169 -577 288 -889 337 -118 19 -428 28
-546 15z m540 -84 c117 -18 339 -74 440 -112 65 -24 270 -123 360 -173 45 -26
191 -129 280 -198 119 -92 277 -264 416 -449 141 -188 290 -539 343 -808 98
-498 -8 -1101 -273 -1543 -39 -66 -78 -126 -86 -132 -8 -7 -15 -17 -15 -23 0
-13 -103 -149 -164 -217 -128 -143 -306 -297 -458 -397 -84 -55 -290 -165
-353 -188 -389 -146 -646 -190 -953 -167 -380 29 -712 146 -1047 367 -117 77
-311 248 -409 359 -256 293 -431 632 -530 1031 -46 181 -51 237 -51 510 1 244
2 268 28 385 38 180 104 369 204 590 80 176 348 520 504 646 34 27 82 67 108
88 141 120 526 321 671 351 19 4 63 15 98 26 77 23 251 57 357 69 108 12 407
4 530 -15z"/>
<path d="M2295 4730 c-206 -19 -453 -78 -600 -142 -308 -135 -480 -246 -691
-450 -203 -196 -404 -497 -496 -741 -92 -248 -129 -404 -150 -634 -42 -478
132 -1054 450 -1493 96 -132 306 -344 439 -443 181 -134 421 -259 608 -317
437 -135 831 -133 1274 5 139 43 229 83 381 167 149 83 234 143 368 261 207
181 422 459 545 704 77 152 174 493 202 708 40 315 4 666 -98 945 -63 171 -76
199 -161 350 -112 197 -210 323 -382 490 -200 193 -370 306 -659 435 -289 130
-675 188 -1030 155z m605 -64 c68 -14 172 -41 231 -61 107 -35 360 -146 428
-187 102 -62 275 -192 349 -263 46 -44 88 -82 93 -83 25 -9 279 -334 279 -356
0 -3 15 -29 34 -58 123 -193 228 -486 265 -738 43 -291 7 -654 -99 -1000 -40
-130 -122 -314 -171 -387 -16 -23 -29 -44 -29 -48 0 -31 -232 -314 -362 -441
-203 -199 -371 -311 -643 -429 -485 -210 -1095 -212 -1565 -5 -489 215 -860
575 -1088 1055 -63 132 -82 179 -120 300 -82 256 -107 439 -99 719 6 240 29
365 114 616 67 198 206 447 348 624 308 384 716 632 1219 741 127 28 217 34
461 30 196 -4 249 -8 355 -29z"/>
<path d="M2369 4589 c-293 -19 -562 -97 -805 -235 -65 -37 -132 -73 -150 -80
l-33 -14 22 -24 22 -25 40 38 c67 63 61 61 169 47 l98 -13 -5 31 c-3 17 -9 45
-12 62 l-7 31 89 33 c83 30 91 31 153 21 36 -6 82 -13 103 -15 l38 -5 -21 36
c-11 19 -19 38 -16 41 7 7 85 21 119 22 24 0 26 -2 17 -19 -5 -11 -14 -32 -20
-46 l-10 -26 75 2 c41 2 75 6 75 10 0 4 -7 26 -15 49 -8 23 -15 44 -15 45 0 7
100 16 109 11 6 -4 4 -19 -5 -41 -21 -52 -19 -55 46 -55 33 0 60 2 60 5 0 3
-11 23 -25 45 -14 22 -25 42 -25 45 0 3 27 5 60 5 33 0 60 -3 60 -6 0 -3 -12
-25 -26 -50 l-26 -44 65 0 65 0 -19 51 -20 52 52 -6 c28 -4 53 -8 56 -10 2 -2
-5 -25 -16 -49 l-19 -46 36 -6 c41 -6 112 -8 112 -2 0 2 -7 22 -15 45 l-14 41
25 0 c28 0 114 -20 114 -27 0 -2 -7 -15 -16 -29 -24 -36 -9 -43 66 -31 110 17
149 13 237 -22 l81 -33 -15 -50 c-8 -28 -12 -52 -10 -54 2 -3 44 -1 93 4 99
10 106 8 165 -45 l40 -36 21 21 21 20 -79 41 c-43 22 -92 49 -109 60 -46 31
-227 105 -355 145 -150 47 -291 75 -415 81 -55 3 -116 7 -135 8 -19 2 -87 0
-151 -4z"/>
<path d="M2278 4233 c-14 -16 -37 -46 -50 -68 -40 -66 -118 -246 -118 -275 0
-88 54 -299 97 -374 9 -16 11 -26 6 -23 -40 25 -198 340 -223 444 -12 52 -12
52 26 110 21 32 65 84 96 116 l58 59 -52 -32 c-67 -39 -226 -117 -348 -171
-145 -63 -140 -50 -60 -159 38 -52 85 -117 104 -144 106 -148 310 -332 461
-417 50 -28 233 -187 243 -212 2 -4 48 37 102 91 71 72 134 124 231 188 139
92 232 177 322 296 26 35 86 113 132 174 l84 112 -62 30 c-34 17 -115 55 -179
86 -65 30 -146 74 -180 99 -94 66 -98 66 -37 1 30 -32 71 -87 91 -120 l36 -62
-22 -78 c-28 -97 -61 -171 -126 -283 -78 -136 -95 -150 -53 -47 38 97 73 245
73 317 0 37 -13 73 -65 178 -71 144 -101 191 -123 191 -11 0 -12 -3 -3 -14 14
-16 35 -89 51 -171 18 -97 28 -120 61 -139 27 -16 29 -20 16 -34 -8 -10 -42
-71 -75 -137 -33 -66 -71 -136 -85 -157 -23 -33 -25 -42 -20 -117 5 -75 4 -83
-20 -118 -14 -21 -48 -69 -74 -107 -26 -39 -52 -71 -58 -73 -17 -5 -29 8 -102
105 -78 103 -90 140 -74 227 9 48 8 52 -25 97 -42 59 -164 269 -164 283 0 5
14 21 30 35 27 22 34 39 56 135 13 61 31 127 39 148 8 20 13 37 12 37 -2 0
-15 -12 -29 -27z"/>
<path d="M1208 4118 c-108 -85 -238 -201 -238 -213 0 -15 29 -41 55 -49 11 -4
43 -38 70 -77 28 -38 80 -109 116 -157 36 -48 85 -116 110 -152 24 -36 59 -84
76 -108 45 -59 63 -128 70 -257 l6 -111 -109 -74 c-118 -80 -220 -155 -229
-170 -3 -5 23 -18 57 -28 70 -22 115 -42 303 -131 190 -91 241 -118 335 -179
79 -52 277 -200 345 -260 58 -50 316 -252 336 -262 24 -13 18 -17 204 145 76
66 149 129 164 140 14 10 78 60 141 111 190 151 293 210 655 379 39 18 100 42
138 55 37 12 67 25 67 30 0 13 -59 59 -204 159 -75 52 -136 99 -136 106 0 38
33 193 53 248 14 38 67 127 132 223 94 139 137 199 241 339 12 17 32 40 44 53
l21 23 -56 54 c-67 66 -239 205 -251 204 -5 0 -56 -59 -114 -131 -58 -72 -131
-159 -162 -194 -47 -52 -57 -69 -53 -91 32 -194 52 -398 59 -625 6 -175 6
-175 -125 -283 -48 -38 -114 -105 -149 -148 -63 -78 -78 -90 -62 -46 5 13 17
68 27 122 l17 97 55 50 c30 27 67 57 84 67 16 9 29 23 29 29 0 23 -60 549 -65
572 -5 21 -8 19 -55 -27 -45 -45 -96 -81 -385 -268 -118 -76 -225 -167 -203
-171 22 -4 43 7 158 83 133 89 320 185 358 185 30 0 32 -2 32 -39 0 -93 -54
-342 -140 -651 -25 -89 -90 -216 -145 -285 -22 -28 -52 -66 -67 -87 -33 -44
-287 -298 -298 -298 -28 0 -256 226 -339 335 -141 185 -170 262 -249 661 -33
164 -63 314 -66 332 -5 31 -4 32 28 32 42 0 110 -36 401 -211 138 -83 172 -85
93 -6 -24 24 -107 78 -190 125 -186 104 -311 188 -368 246 -24 25 -47 46 -51
46 -7 0 -31 -170 -58 -415 -17 -154 -17 -171 -3 -179 9 -5 47 -37 86 -70 l70
-62 17 -94 c10 -52 21 -106 24 -120 6 -23 4 -22 -27 10 -18 20 -51 57 -73 83
-22 26 -60 61 -85 79 -82 58 -151 121 -161 145 -19 51 26 584 67 780 3 15 -5
31 -25 50 -27 27 -140 152 -270 301 -35 39 -67 72 -71 72 -5 0 -32 -19 -62
-42z"/>
<path d="M2504 4100 c-10 -10 -40 -34 -65 -52 -26 -18 -80 -57 -122 -87 l-75
-53 29 -64 c16 -35 44 -87 61 -116 l32 -52 13 50 c7 27 13 65 13 84 1 27 11
46 45 84 24 27 54 69 65 94 l22 45 17 -39 c10 -22 39 -65 64 -96 25 -31 45
-65 45 -75 -1 -10 7 -47 17 -82 l18 -64 59 118 c33 64 58 118 56 120 -2 1 -59
44 -128 95 -69 51 -130 96 -136 101 -6 5 -18 0 -30 -11z"/>
<path d="M2487 3848 c-18 -14 -47 -88 -47 -120 0 -18 2 -18 22 -4 29 21 97 20
127 0 22 -16 23 -16 18 2 -3 11 -8 33 -12 51 -14 68 -66 102 -108 71z"/>
<path d="M3936 3653 l-59 -65 30 -30 31 -30 56 36 c31 20 58 36 61 36 5 0 55
-95 55 -105 0 -3 -15 -5 -33 -5 l-34 0 26 -55 c25 -53 26 -55 66 -55 36 0 42
-4 62 -40 l21 -40 -28 -37 c-68 -90 -60 -85 -135 -82 l-68 4 -18 -65 c-9 -36
-16 -67 -13 -69 2 -3 44 7 92 20 84 25 87 27 90 57 l3 32 63 0 c72 0 76 -5 76
-87 0 -32 -5 -45 -20 -53 -11 -6 -20 -15 -20 -21 0 -5 20 -42 44 -82 24 -39
47 -83 51 -96 5 -15 10 -20 17 -13 22 22 -48 326 -114 492 -56 141 -173 354
-220 397 l-23 21 -59 -65z"/>
<path d="M978 3663 c-53 -73 -158 -258 -194 -345 -62 -146 -124 -390 -124
-488 0 -34 1 -34 39 32 21 36 52 83 67 104 16 20 24 39 19 41 -62 21 -66 32
-44 116 l10 37 69 0 70 0 0 -35 c0 -24 5 -35 15 -35 8 0 48 -11 90 -24 80 -26
81 -25 66 34 -5 19 -12 48 -15 63 l-7 28 -72 -7 -73 -6 -47 52 c-26 29 -47 56
-47 61 0 6 9 28 21 51 20 39 22 40 63 36 l43 -5 25 58 26 57 -34 7 c-19 3 -34
8 -34 10 0 19 43 95 54 95 8 0 38 -16 67 -35 54 -37 54 -37 80 8 12 22 2 39
-54 95 l-44 43 -35 -48z"/>
<path d="M2468 3653 c-39 -24 -53 -66 -53 -158 0 -76 3 -85 49 -177 27 -54 53
-98 58 -98 12 0 44 55 80 140 64 153 26 311 -76 310 -17 0 -43 -8 -58 -17z"/>
<path d="M1900 3338 c0 -12 111 -120 118 -113 7 7 -21 50 -56 88 -36 37 -62
48 -62 25z"/>
<path d="M3076 3320 c-35 -31 -87 -108 -64 -94 62 37 117 89 118 112 0 20 -17
14 -54 -18z"/>
<path d="M2076 3172 c-15 -25 -9 -138 11 -182 23 -52 102 -129 135 -132 96 -6
163 33 209 124 l19 38 -56 36 c-133 85 -299 146 -318 116z m167 -112 c54 -32
103 -61 110 -64 21 -8 -15 -26 -53 -26 -86 0 -163 51 -176 118 -9 45 4 42 119
-28z"/>
<path d="M2867 3169 c-20 -5 -56 -18 -80 -30 -52 -26 -207 -120 -207 -126 0
-2 9 -20 19 -41 24 -46 76 -97 114 -111 101 -38 215 36 249 162 9 36 9 55 -3
98 -16 60 -25 64 -92 48z m43 -87 c0 -39 -26 -71 -74 -93 -51 -23 -129 -25
-146 -4 -16 19 -16 19 40 44 25 11 69 34 99 51 67 37 81 38 81 2z"/>
<path d="M615 2650 c-20 -202 45 -513 162 -776 54 -120 202 -385 236 -422 28
-30 50 -26 180 29 65 29 97 47 97 58 -1 9 -7 43 -15 76 -8 33 -15 78 -15 101
l0 41 -100 7 c-118 7 -188 31 -258 87 -28 21 -66 46 -86 54 -20 9 -36 20 -36
26 0 6 -9 22 -20 36 -32 40 -23 47 18 14 78 -63 83 -64 568 -69 l441 -4 39
-54 c33 -46 40 -52 49 -38 6 10 30 42 54 73 24 31 48 61 53 68 9 11 -73 197
-93 209 -6 3 -21 -3 -33 -15 -22 -21 -30 -21 -414 -21 l-391 0 -35 46 c-67 87
-74 229 -17 350 17 36 31 68 31 70 0 2 -35 4 -77 5 -126 1 -202 26 -309 104
-22 16 -22 15 -29 -55z"/>
<path d="M4349 2694 c-51 -55 -171 -94 -291 -94 -38 0 -68 -2 -68 -5 0 -3 14
-34 32 -68 26 -51 32 -76 36 -147 5 -100 -7 -152 -48 -208 l-30 -42 -397 0
-397 0 -28 27 c-15 14 -29 25 -31 22 -2 -2 -25 -48 -52 -102 l-48 -97 55 -58
c30 -31 63 -70 73 -85 10 -15 22 -26 26 -25 5 2 23 24 41 51 l33 47 440 3
c483 2 456 -1 543 65 17 13 32 20 32 14 0 -18 -84 -97 -159 -150 -78 -55 -116
-66 -256 -78 l-81 -6 -12 -111 c-6 -60 -9 -114 -6 -119 8 -12 121 -68 179 -88
l49 -17 22 26 c55 67 190 322 241 456 96 252 130 394 141 588 8 136 5 227 -7
227 -4 0 -18 -12 -32 -26z"/>
<path d="M2463 2670 c-39 -24 -41 -33 -8 -65 31 -32 74 -33 103 -2 28 30 28
41 -4 66 -33 26 -50 26 -91 1z"/>
<path d="M1275 2505 c-54 -53 -19 -145 54 -145 39 0 81 38 81 75 0 83 -81 125
-135 70z"/>
<path d="M2448 2499 c-53 -27 -78 -46 -44 -33 8 3 36 -4 63 -16 l49 -21 52 24
52 24 -29 13 c-17 7 -36 18 -42 26 -17 20 -37 17 -101 -17z"/>
<path d="M3631 2504 c-43 -54 -20 -134 43 -150 32 -8 84 21 97 54 33 86 -85
166 -140 96z"/>
<path d="M3305 2411 c-49 -21 -72 -74 -55 -126 21 -64 84 -84 146 -46 71 43
43 162 -41 176 -17 2 -39 1 -50 -4z"/>
<path d="M1634 2398 c-48 -23 -58 -100 -18 -147 33 -40 89 -43 131 -7 23 20
28 32 28 71 0 39 -5 51 -28 71 -30 26 -76 31 -113 12z"/>
<path d="M2130 1968 c-40 -167 -172 -469 -237 -543 -21 -23 -45 -50 -53 -61
-26 -35 -114 -138 -145 -172 -44 -48 -107 -82 -153 -82 -22 0 -95 11 -162 25
-68 14 -124 24 -126 23 -5 -5 168 -143 238 -191 318 -214 811 -333 1188 -287
401 49 713 182 1015 433 52 44 56 49 30 43 -136 -27 -242 -33 -267 -13 -37 29
-225 267 -299 379 -45 68 -122 205 -171 306 -49 100 -94 182 -99 182 -5 0 -84
-57 -176 -126 -92 -69 -172 -128 -178 -130 -15 -6 -77 36 -346 232 l-47 34
-12 -52z m397 -461 c25 -11 44 2 178 127 67 62 95 75 95 43 0 -38 179 -333
298 -491 24 -33 51 -75 59 -94 37 -88 -56 -165 -146 -120 -42 20 -77 68 -126
168 l-27 55 -360 -5 -360 -5 -29 -79 c-16 -44 -29 -81 -29 -83 0 -2 120 -3
266 -3 224 0 271 -3 300 -16 61 -29 58 -101 -6 -135 -91 -49 -514 13 -672 99
-52 27 -58 37 -29 45 23 6 90 99 173 242 53 90 123 246 187 418 l11 29 98 -92
c53 -51 107 -97 119 -103z"/>
<path d="M2300 1462 c0 -17 -30 -123 -47 -168 -4 -12 48 -14 326 -14 182 0
331 2 331 4 0 2 -16 30 -35 62 -19 32 -41 73 -47 92 -10 26 -17 32 -33 29
-107 -27 -218 -47 -255 -47 -52 0 -207 35 -227 52 -10 8 -13 6 -13 -10z"/>
<path d="M1733 1832 c-5 -4 -53 -59 -105 -123 -168 -205 -269 -284 -425 -331
-56 -17 -103 -35 -103 -39 0 -17 98 -92 157 -120 126 -60 199 -49 318 46 127
102 283 277 353 398 l21 37 -37 24 c-20 12 -52 31 -69 40 -18 9 -48 29 -66 45
-18 17 -38 27 -44 23z"/>
<path d="M3285 1814 c-16 -13 -54 -38 -82 -55 -29 -17 -55 -35 -59 -40 -24
-40 286 -416 420 -508 l48 -33 62 16 c34 9 82 29 107 44 63 37 123 92 113 102
-5 4 -51 29 -102 56 -110 57 -243 174 -383 337 -50 59 -92 107 -93 107 -1 -1
-14 -12 -31 -26z"/>
</g>
</svg>
